<?xml version="1.0" encoding="utf-8"?>
<!-- Generator: Adobe Illustrator 26.0.3, SVG Export Plug-In . SVG Version: 6.00 Build 0)  -->
<svg version="1.1" id="Layer_1" xmlns="http://www.w3.org/2000/svg" xmlns:xlink="http://www.w3.org/1999/xlink" x="0px" y="0px"
	 viewBox="0 0 300 300" style="enable-background:new 0 0 300 300;" xml:space="preserve">
<style type="text/css">
	.st0{fill:#006837;}
</style>
<g>
	<g>
		<path class="st0" d="M139.8,95.6c-0.1,9.6-0.2,19.3-0.2,29c-0.1,9.7-0.1,17.3-0.1,22.9c0,12.6,0,23.8,0.1,33.8
			c0.1,10,0.1,16.3,0.1,18.9l-19.8,8.1c-14-18.6-27-35.2-38.9-49.7c-11.9-14.5-19.2-23.3-21.8-26.4l-0.4,0.2
			c0,11.9,0.1,26.3,0.2,43.2c0.1,16.9,0.2,27.3,0.2,31.2H33.6c0.1-2.8,0.1-8.9,0.2-18.3c0.1-9.4,0.1-21.1,0.1-35.1
			c0-5.7,0-13-0.1-22c-0.1-8.9-0.1-18.5-0.2-28.8L55.1,94c2.4,2.9,9.7,11.8,21.7,26.7c12,14.8,24.5,29.9,37.5,45.2l0.3-0.2
			c0-7.6-0.1-19-0.2-34s-0.2-27-0.2-36.1H139.8z"/>
		<path class="st0" d="M270.7,199.2l-25.4,9.9c-2-3-6.1-8.3-12.1-16c-6-7.7-15.2-19.6-27.5-35.8l0.4-1.7c1.8-0.4,4.2-1.3,7.2-2.8
			c3-1.5,5.5-3.2,7.5-5.1c2-2,3.6-4.2,4.7-6.5c1.1-2.3,1.6-5.2,1.6-8.7c0-3.4-0.9-6.4-2.6-9c-1.7-2.7-4.1-4.6-7.2-5.9
			c-2.5-1.1-5.1-1.7-7.7-2s-5.2-0.4-7.7-0.4c-1.5,0-2.6,0-3.4,0c-0.8,0-1.3,0-1.6,0c-0.1,6.6-0.1,13.3-0.1,20.2c0,6.9,0,13.1,0,18.6
			c0,9,0,18.9,0.1,29.6c0.1,10.7,0.1,18.4,0.2,23.2h-27.5c0.1-4.4,0.1-10.8,0.2-19.3c0.1-8.5,0.1-21,0.1-37.6c0-4.4,0-10.8,0-19
			c0-8.2-0.1-20-0.3-35.2c1.6,0,4.9-0.1,10-0.2c5.1-0.1,9.8-0.2,14.2-0.2c8.2,0,15.4,0.2,21.5,0.7c6.1,0.5,11.8,1.7,17.1,3.5
			c7.7,2.5,13.4,6.3,17.1,11.2c3.7,5,5.6,10.5,5.6,16.7c0,7.1-2,13.1-5.9,18.2c-3.9,5-7.9,8.8-12,11.4v0.5
			c5.7,7.2,11.9,14.6,18.4,22.1C261.9,187.1,267,193.7,270.7,199.2z"/>
	</g>
</g>
</svg>
