<?xml version="1.0" encoding="utf-8"?>
<!-- Generator: Adobe Illustrator 26.1.0, SVG Export Plug-In . SVG Version: 6.00 Build 0)  -->
<svg version="1.1" xmlns="http://www.w3.org/2000/svg" xmlns:xlink="http://www.w3.org/1999/xlink" x="0px" y="0px"
	 viewBox="0 0 300 300" style="enable-background:new 0 0 300 300;" xml:space="preserve">
<style type="text/css">
	.st0{opacity:0.9539;}
	.st1{opacity:0.9;}
	.st2{fill:#B8B8B8;}
	.st3{fill:#D1D1D1;}
	.st4{fill:#767676;}
	.st5{fill:#606060;}
	.st6{fill:#9F9F9F;}
	.st7{fill:#8C8C8C;}
	.st8{fill:#464646;}
	.st9{stroke:#000000;stroke-width:4;stroke-miterlimit:10;}
	.st10{stroke:#000000;stroke-width:2;stroke-miterlimit:10;}
</style>
<g id="Layer_2">
	<g class="st0">
		<g>
			<g>
				<g class="st1">
					<g class="st1">
						<g>
							<path class="st2" d="M263.7,23.9c-1.6-0.8-3.1-0.1-4.6-1.6c0.8-1.2,1.7-2.4,2.5-3.6C263.9,20,266.4,22.6,263.7,23.9z"/>
						</g>
						<g>
							<path class="st2" d="M292.9,67.6c-1.1,1.8-1.9,3.6-2.9,5.4c-1,0.9-2.1,1.8-2.9,2.8l-0.6,0.8c-1.4,1.3-2.6,2.7-3.9,4.1
								c-0.8,1-1.6,2.2-2.3,3.2c-0.2,0-0.6,0-1,0c-0.5,1.2-1,2.4-1.6,3.6c-0.7,0.1-1.3,0.1-1.9,0.1c0.1,0.9,0.3,2.1,0.5,3.1
								c-0.8,1-1.6,2.2-2.4,3.2c0.1,0.1,0.4,0.3,0.7,0.5c-1.8,2.6-3.5,5.4-5.2,8.1c-3.6,4-7.1,8-10.7,12.1l-1.9-1.5
								c-0.7,0.8-1.4,1.7-2.2,2.7l1.9,1.5c-1.8,2.4-3.6,5-5.3,7.5c-0.8,0.9-1.6,1.8-2.3,2.6c-4.4,0.5-1.5,1.9-2.4,2.6
								c-1.5,0.5-3,0.9-4.6,1.4c-0.3,0.4-0.7,0.8-1.2,1.2c-1.2,0.6-2.3,1-3.5,1.6c-2.4,2.7-4.7,4.7-6.8,6.5
								c-2.2,1.8-4.4,3.4-6.7,5.6c-1.2,1.6-3,4-5.2,5.8c-0.5,0.5-1.1,0.9-1.7,1.2c-0.6,0.3-1.2,0.6-1.8,0.8
								c-1.3,0.4-2.6,0.4-3.9-0.1c-0.5,3.3-3.1,4.4-4.9,6c-1.4-2-2.2,0.1-3.7,0c-0.6,0.4-1.3,0.9-1.8,1.3c-1,0.7-1.9,1.3-2.8,2
								c-0.9,0.6-1.8,1.3-2.8,2c-1.6,1.1-3.1,2.2-4.7,3.3l-4.8,3.1c-1.3,0.4-2.6,0.9-3.7,1.4c-1,0.8-2,1.9-2.9,2.8
								c-1,0.8-2,1.7-3,2.5c-0.9,1.3-1.7,2.3-2.6,3.4c-0.2,0.1-0.3,0.2-0.5,0.3c-1.3,1-2.7,2.1-4,3.2c-1.6,1.1-3.1,2.2-4.6,3.4
								c-1.2,0.3-2.3,0.5-3.4,0.9c0.2,3.2-2.4,3.7-4.3,3.9c-2.7,1.7-5.3,3.4-8.1,4.9c-0.6,1.4-1.1,2.9-1.6,4.2
								c-0.7-0.8-1.4-1.7-1.9-2.5c-2.6,1.6-5.1,2.9-7.7,4.5c0.7,1.4,1.4,2.8,2.1,4.2c-1.4,2.1-0.8,4.7-0.9,5.6
								c-1.1,0.7-2.1,1.5-3.2,2.2c-4.3,0.7-6.9,0.5-7,3.2c-2.1,1.7-4.2,3.1-6.3,4.7c-4.2-0.1-6.1,1.2-5,3.2c-0.7,0.3-1.3,0.6-2,0.9
								l-4.8,2.2c-3.7-0.2-3,2.3-3.2,3.1c-1.3,0.6-2.6,1.2-3.8,1.8c-1.6,0.7-3.2,1.5-4.7,2.2c-2.9,0.7-1.6,2.2-3.1,3.3
								c-1.1,0-2.3,0-3.6-0.1l-0.9,0.4c0.6,3.1-1.6,3.2-2.9,3.3l-0.9,0.4c0.8,2.8-1,2.8-2,2.8c0.2,1,0.4,2,0.6,3.2
								c-1.5,0.1-2.9,0.2-4.3,0.4c-0.9,0.5-1.7,0.9-2.6,1.4c0.2,1,0.5,2.1,0.8,3.1c-1.2,0.1-2.3,0.1-3.4,0.2c-1.8,0.6-3.6,1.2-5.2,2
								c-1.1-1.4-2.2-3-3.4-4.4c0.4-1,0.6-2.1,1-3.2c0.2-0.1,0.3-0.2,0.5-0.3c1.1,1.2,2.2,2.3,3.4,3.5c0.7-0.4,1.4-0.8,2.6-1.4
								c0.3-2.2,2.2-2.3,2.3-4c1.2,0.1,2.3,0,3.5-0.1c0.9-0.8,1.8-1.5,2.7-2.3c0.3-0.7,0.8-1.5,1.1-2.2c-1-3.8,0.8-3.7,1.7-4.5
								c-0.3-0.6-0.7-1.3-1.1-2c0.3-0.1,0.6-0.3,1-0.5c1.4-0.6,2.9-1,4.6-1.4c2.3-0.4,1.6-3.3,1.5-5c0.8-0.8,1.7-1.5,2.5-2.1
								c0.7-0.1,1.5-0.2,2.3-0.2c0.1-0.8,0.2-1.3,0.3-1.9c3.1-0.9,6.3-1.9,9.4-2.6c0.2-1.3,0.4-2.5,0.6-3.7c1.4-0.1,3-0.3,4.5-0.5
								c1.3-0.8,2.4-1.6,3.5-2.5l1.5-0.7l-0.6-1.3c1.5-0.5,3.2-0.9,4.8-1.3c0.2,0.4,0.4,0.9,0.6,1.3c3.3-0.4,2.1-2.7,3.4-4.1
								c1-0.8,2.1-1.7,3.2-2.3c-2.7-3.2-5.6-2.8-5.5,0c-0.4,0.2-0.7,0.3-1,0.5c-1.5-0.5-2.9-1-4.4-1.5c1-6.7,5.9-4.1,7.7-7.8
								c3.3-1.2,0.6-7.7,5.6-6c3.5,0.1,5-1.1,4.3-3.6c2.7-1.6,5.5-3.4,8.4-5c2,2.1,1.9-0.6,3.3-0.7c0.6-2,1.7-3.2,2.9-4
								c1.2-0.9,2.7-1.3,4.1-1.8c2.9-1,5.8-1.9,7-5.8c3.5,0.6,3.6-1.9,5.3-4c1.7-0.8,3.4-1.4,5.2-2c-0.1-2.8,1.5-3,3.4-3
								c1.9,0,4.2,0.3,5.2-1.7c1.6-0.7,3.2-1.2,4.6-2c1.6-1.7,2.4-6.2,4.5-4.2c1.5-1.4,4.5,1.6,6-1.3c0.3-0.9,0.8-1.6,1.5-2.2
								c0.6-0.7,1.2-1.3,1.9-1.9c1.2-1.2,2.3-2.4,2.2-4c2.4-0.2,4.2-2.4,6.1-4.6c1.8-2.2,3.7-4.4,6.7-4.3c0.3-4.3,5.8-6.7,8.5-10.2
								l2-2c1.2,1.3,2.1,0,2.6-0.6c0.4-0.7,1.8-0.9,1-2.2c-1-0.8,0.7-1.4,4-0.7c0.1,0.1,0.4,0.3,0.6,0.5c0.1,1.3,0.3,2.6,0.4,4.1
								c2.7,0.4,3.6-0.5,5.7-0.3c-0.4-0.7-1-1.3-1.4-2c0.1-1.1,0.2-2.4,0.2-3.6c1.2,0.1,2.6,0.2,3.8,0.3c3.3-1-1.4-3-0.7-5
								c2.1-0.4,4.2-0.9,6.3-1.3c1.6-3.5,6.3-3.7,6.5-7.7c1.3,0.4,2.6,1,3.8,1.5c0.6-1,1-2,1.5-3.2c1.4-1.3,2.9-2.6,4.2-3.9
								c-1.3-2.3-0.1-5.4,2.7-3.5l3.4-4.5c-0.4-1.7-0.8-3.3-1.1-5c-2.9-1-2.9-4-1.2-4.9c1,0.3,2.1,0.6,3.1,0.9
								c0.1-0.9,0.1-1.8,0.2-2.7c1.1-0.1,2.1-0.4,3.2-0.5c0.4-0.6,0.9-1.2,1.3-1.8c0.7-0.9,1.3-1.8,2-2.7c0.9-2.7,0.7-3.5,0.7-4.8
								c-0.9-0.6-1.7-1.2-2.6-1.7c-0.5-1.3-0.9-2.4-1.4-3.6c1.2-2.8,3.9-3.6,5.8-5.4c3.5-2.1,5.9,1.2,8.1,2c0.5-0.7,1-1.5,1.6-2.3
								c1.6,0.5,3.2,0.8,4.8,1.3C295.6,63.7,294.3,65.9,292.9,67.6z"/>
						</g>
						<g>
							<path class="st2" d="M233.9,47.1c0.4,2.8-0.8,3.3-3,3C230.4,47.6,230.3,44.7,233.9,47.1z"/>
						</g>
						<g>
							<path class="st3" d="M242.5,65.8c0.4,0.8,0.6,1.6,0.9,2.5c-3.5,2.7-2.7,7.6-7.4,9.7c3.4,4.6,6,2.6,7.9,5.2
								c1.6,1.9-0.7,2-0.1,3.8c0.3,0.2,0.4,0.3,0.7,0.5c2.8,3.5,3.8,4.3,4.9,5c-0.4,1.3-0.8,2.5-1.1,4c-1.9-0.2-3.8-0.2-5.7-0.3
								c-2.6-2.7,0.8-3.4-1.8-5.3c0.1-0.9,0.2-1.7,0.2-2.6c-5.4,0.5-6.6,3.6-8.7,5.6c-1.2-0.1-2.6-0.2-3.8-0.3
								c-0.6-0.9-1.2-1.8-1.7-2.7c0.2-0.7,0.5-1.4,0.7-2.1c1.2-1.7,2.2-3.5,3.3-5.3c0.5-0.9,0.7-1.7,1.1-2.4c-1-1.3-2.1-2.5-3.1-3.6
								c0-1.3,0-2.6,0-3.9c1.3-0.6,2.4-1.2,3.5-1.9c1.6-1,0.9-2.8,1.3-4.3l0.6-0.8c1.6-1,3.1-2.2,4.5-3.3
								C240,64.1,241.2,64.9,242.5,65.8z"/>
						</g>
						<g>
							<path class="st4" d="M252.2,36.3c-0.7,2.4-1.5,4.9-2.3,7.4c-0.7,1.9-1.5,3.7-2.2,5.6l-0.6,0.8c-1.5-0.4-3.2-0.8-4.9-1.3
								c-2,1.6,2.2,3,2.3,4.8c-0.8,1.7-1.9,3.4-2.8,5.2c-0.8,0.5-1.4,1.1-2.2,1.7c-1.5-0.5-3.1-1-4.8-1.4c-1.6,1.9-3.5,4.2-0.6,7.3
								l-0.6,0.8c-0.3,1.5,0.3,3.3-1.3,4.3c-1.1,0.7-2.3,1.3-3.5,1.9c0,1.3,0,2.6,0,3.9c-0.7,0.9-1.5,1.9-2.3,2.9
								c0.6,1.4,2.8,3,4.3,3.2c-1,1.8-2.1,3.7-3.3,5.3c-2.1-1.6-4.1-3.2-6.2-4.8c-3.4-0.1-4.6,1.7-5.7,3.7c-1.1,2-2.2,4.4-5.1,5.4
								c-2.8,1.2-4.1,3.3-5.5,5.3c-1.4,1.9-2.8,3.7-5.6,4.2c3.2-7.4,9.9-12.1,11.4-18.3c0.3,0.2,0.4,0.3,0.6,0.5
								c1.5-3.3,6.1-4.7,8.1-8.5c0.6-2.5,0.4-5.1,3.9-3.5l1.6-2c-0.1-0.4-0.1-0.9-0.1-1.2c0.9-0.9,1.9-1.7,2.9-2.4
								c-1.2-0.8-2.1-1.5-3.2-2.3c0.6-3.2,0.2-4.5-0.4-5.9c2.2-2.9,4.3-5.8,6.5-8.7c2.2,0.3,3.4-0.2,3-3
								c5.4-5.3,10.8-10.6,16.2-16.1C250.8,32.9,251.6,34.6,252.2,36.3z"/>
						</g>
						<g>
							<path class="st5" d="M224.4,58.9c0.5,1.4,0.9,2.8,0.4,5.9c1.1,0.8,2,1.4,3.2,2.3c-1,0.7-2,1.5-2.9,2.4
								c-0.1,0.4,0,0.8,0.1,1.2l-1.6,2c-3.5-1.6-3.3,1-3.9,3.5c-2,3.9-6.6,5.2-8.1,8.5c-0.3-0.2-0.4-0.3-0.6-0.5
								c-1.5,6.2-8.2,10.9-11.4,18.3c2.9-0.4,4.3-2.2,5.6-4.2c1.3-2,2.6-4.1,5.5-5.3c2.9-1,3.9-3.3,5.1-5.4c1.1-2.1,2.3-3.8,5.7-3.7
								c2.1,1.6,4.1,3.2,6.2,4.8c-0.2,0.7-0.5,1.4-0.7,2.1c-1.2,0.2-2.4,0.3-3.5,0.6c-1.3,1,1.4,1.8,1.4,3.2
								c-0.9,1.1-1.8,2.1-2.7,3.1c-1.9,2.2-3.9,4.4-5.9,6.7c0,2-2.2,3.1-3.3,4.7c-1.2,0.3-2.3,0.7-3.3,1.1c-3.5,0.4-4.6,1-4.5,2.2
								c-1.2,0.2-2.5,0.4-3.8,0.5c-0.2,0.8-0.3,1.6-0.3,2.6c-1.3,0.3-2.5,0.8-3.7,1.2c-0.4,1.5-0.8,3-1.4,4.4
								c-1.1,0.7-2.3,1.4-3.4,2.1l-1.9,1.6c-4.3-2.6,0,2.9-3.9,3.1c0.2,0.4,0.4,0.9,0.5,1.4c0.4,3.4-2.9,3.5-3.6,4.9
								c-1.3,0-2.6,0-3.9-0.1c-1,0.5-1.9,0.8-2.9,1.2c-0.9,1.2-1.9,2.5-2.8,3.7c-0.2,0.1-0.3,0.2-0.4,0.3c-1.6,1-3.3,1.7-5.1,2.4
								c-3,1.5-1.9,3.5-2.8,5.6c-3.4,0.2-2.7,2.3-3.6,3c-3.3,0.2-4,0.6-4.8,1.1c-2,1.2-4.2,2.4-6.2,3.5c-0.1,1,0.2,2.5-0.6,2.9
								c-0.4,0.2-0.7,0.3-1,0.5c-0.9,0.3-2.1,0.5-3.2,0.8c-1.5,0-4.6-0.5-5.3,2c-2,0.7-4.1,1.4-6,2.1c-1.5,2-2.9,2.9-4.6,4.8
								c-1.1,1.1-2.3,2.2-3.5,3.5c-5.2,1-5,3.9-8,5.3c-1.2,1.5-2.5,2.9-3.8,4.4c-1.3,1.1-2.5,2.2-3.7,3.3c-1-0.4-1.6,1.3-3,1.4
								c-6.9,0.8-9.4,3.4-11.1,6.9c-1.4,1.2-3,2.4-4.2,3.7c-1,0.5-2.1,1-3,1.4c-3.6-0.5-3.3,0.8-4,1.9c0.2,0.4,0.4,0.9,0.7,1.3
								c-1.5,0.7-2.9,1.4-4.4,2.1c0,0.3-0.1,0.6-0.1,1c-1.1,0.2-2.2,0.5-3.3,0.7c-0.3,0.5-0.5,0.8-0.7,1.2c-1.1,0.7-2.1,1.6-3.1,2.4
								c-0.8,0-1.6,0.1-2.3,0.3c-0.8,0.6-1.7,1.4-2.6,2.2c-2,1-3.9,2-5.8,3c1.6-3,1.5-6.9,4.7-5.1c1-0.7,1.8-1.5,2.7-2.1
								c1.2-2.4,3.3-3.4,5.6-3.6l-0.9-3.9c0.7-0.4,1.4-0.7,2.1-1c-1.4-3.5,0.4-3.5,1.5-4.2c0-0.9,0-1.8-0.1-2.7c0.9-1,1.9-1.9,2.9-3
								c1.4,0.4,3.2,2.6,4.3,1.4c-1.3-3.3-5.8-9.3-1.5-10.5c4.4-1.1,7.4-5,12.4-5.7c0.5-2.2,0.4-4.4,3-4.8c0.8,1.8,1.9,0.9,2.7,0.5
								c2.3-1.2,1.7-3.4,4.5-3.9c0.6,0.1,0.9,0.1,1.4,0.3c0.4-2.9-0.2-3.6,0.7-4.6c-3.2-0.8-2.9,0.6-3.8,0.8
								c-0.3,0.1-0.6,0.3-0.9,0.4c-1.2,0-2.3,0-3.6,0c1-0.5,1.9-0.9,2.9-1.3c-0.5-1.9-1-3.6-1.5-5.3l1.5-0.7
								c3.6,0.3,5.5,0.8,7.7,1.6c0.4-0.2,0.7-0.3,1-0.5c0.5-1.5,0.9-2.7,1.4-4.1c0.4,0,0.8,0.2,1.2,0.2c0.6-0.8,1.1-1.6,1.7-2.4
								c0.9-0.5,1.9-0.9,2.7-1.3c0-0.4,0-0.7,0.1-1c0.9-0.5,1.8-0.9,2.7-1.3c1,0.1,2,0.1,3,0.3c0.7,1.3,1.5,2.7,2.2,4
								c0.6,0.4,1.1,0.7,1.6,1c0.2-0.1,0.4-0.2,0.5-0.2c0.8-2.2,1.5-4.2,2.2-6.4c-0.3-0.4-0.8-0.7-1.2-1c1.9-0.8,3.8-1.4,5.6-2.2
								c0.6-1,1-2.2,1.5-3.3c1.7-0.4,3.5-0.9,5.5-1.2c1-1.8,2-3.2,3-4c0.5-0.4,1.1-0.7,1.7-0.8c0.6-0.1,1.2-0.1,1.9,0.1
								c1.6-0.8,3.2-1.4,4.9-2.1c0.4-0.3,0.8-0.5,1.2-0.7c0.4-0.6,0.7-1.2,1.2-1.7c0.9,0,1.8,0,2.8-0.1c-0.1-1.3-0.1-2.7-0.8-4.2
								c1.3-0.5,2.7-1.1,3.9-1.7c0.9-0.8,1.8-1.5,2.7-2.3l1.4-1.2l1.3-1.2c1.7-1.6,3.4-3.3,5.1-4.9c1-1.2,0-3.6,1-4.9
								c0.2-0.2,0.4-0.4,0.7-0.6c1.2,0,2.5,0,3.7,0.1c1.7-1.4,3.2-2.9,4.8-4.3c0.8-1.2,1.6-2.3,2.5-3.5c0.4-0.4,0.9-0.9,1.3-1.3
								c4.3-4,8.4-8.3,12.7-12.7c4.2-4.5,8.3-9.1,12.4-13.9c5,0.3,2-1.2,1.9-2.4c2.2-2,4.5-4.2,6.8-6.3
								C222.9,61.6,223.6,60.2,224.4,58.9z"/>
						</g>
						<g>
							<path class="st2" d="M231.9,81c-0.4,0.8-0.6,1.6-1.1,2.4c-1.5-0.2-3.7-1.8-4.3-3.2c0.8-1,1.6-1.9,2.3-2.9
								C229.7,78.4,230.8,79.7,231.9,81z"/>
						</g>
						<g>
							<path class="st6" d="M276.5,72c0.1,1.3,0.3,2.1-0.7,4.8c-0.7,0.9-1.3,1.8-2,2.7c-0.4,0.6-0.9,1.2-1.3,1.8
								c0.3,0.5,0.6,0.8,1,1.4c-1.4-0.3-2.8-0.5-4.2-0.9c-0.1,0.9-0.1,1.8-0.2,2.7c-1-0.3-2.1-0.6-3.1-0.9c-1.7,0.9-1.7,3.9,1.2,4.9
								c0.4,1.7,0.8,3.3,1.1,5l-3.4,4.5c-2.8-1.9-4,1.2-2.7,3.5c-1.3,1.4-2.7,2.7-4.2,3.9c-0.5,1.1-0.9,2.1-1.5,3.2
								c-1.2-0.5-2.5-1-3.8-1.5c-0.2,4-4.9,4.2-6.5,7.7c-2.1,0.4-4.2,0.9-6.3,1.3c-0.7,2,4,4,0.7,5c-1.2-0.1-2.6-0.2-3.8-0.3
								c0,1.2,0,2.5-0.2,3.6c0.5,0.7,1,1.3,1.4,2c-0.1,0.4-0.1,0.8-0.2,1.4c-1.9-0.4-3.6-0.9-5.5-1.1c-0.2-1.6-0.6-3.1-1-4.6
								c-3.4-0.7-5.1-0.1-4,0.7c0.8,1.3-0.6,1.5-1,2.2c-0.5,0.6-1.4,1.9-2.6,0.6l-2,2c-2.7,3.5-8.2,5.9-8.5,10.2
								c-3,0-4.9,2.1-6.7,4.3c-1.9,2.1-3.7,4.4-6.1,4.6c0.1,1.7-1,2.8-2.2,4c-0.6,0.6-1.3,1.2-1.9,1.9c-0.6,0.6-1.1,1.4-1.5,2.2
								c-1.5,2.8-4.5-0.2-6,1.3c-2.1-2.1-2.9,2.4-4.5,4.2c-1.4,0.7-3,1.3-4.6,2c-1,2-3.3,1.7-5.2,1.7c-2-0.1-3.5,0.2-3.4,3
								c-1.8,0.6-3.5,1.3-5.2,2c-1.6,2.1-1.8,4.6-5.3,4c-1.2,3.9-4.1,4.9-7,5.8c-1.4,0.5-2.9,1-4.1,1.8c-1.2,0.8-2.3,2-2.9,4
								c-1.4,0.2-1.3,2.8-3.3,0.7c-2.9,1.6-5.7,3.4-8.4,5c0.8,2.5-0.8,3.8-4.3,3.6c-5.1-1.7-2.3,4.8-5.6,6c-1.7,3.6-6.7,1.1-7.7,7.8
								c1.5,0.5,2.9,1,4.4,1.5c0.3-0.1,0.6-0.3,1-0.5c-0.1-2.8,2.7-3.2,5.5,0c-1.1,0.7-2.2,1.5-3.2,2.3c-1.1,1.4-2.4,2.7-3.4,4.1
								c-0.2-0.4-0.4-0.9-0.6-1.3c-1.6,0.4-3.3,0.8-4.8,1.3l0.6,1.3l-1.5,0.7c-0.8,0.7-1.7,1.5-2.5,2c-0.4,0.2-0.7,0.3-1,0.5
								c-1.5,0.2-3.1,0.3-4.5,0.5c0,1.1,0.2,2.1,0.4,3.2c-0.3,0.1-0.6,0.3-1,0.5c-3.1,0.7-6.3,1.6-9.4,2.6c-0.1,0.6-0.2,1.1-0.3,1.9
								c-0.7,0-1.6,0-2.3,0.2c-0.4-0.7-0.7-1.4-1-2c-1.1-0.7-2.3-1.2-3.4-2c0.1-1.1,0-2.3,0-3.4c2.1-2.9,3.1-8.1,5.7-10.4
								c2.4,2.1,3.1-0.4,6.1-1.1c-0.3-0.6-0.5-1-0.7-1.5c2.3-1.6,4.8-3.3,7.1-5c2.3,0.2,0.3-2.5,0.7-3.7c0.8-0.4,1.5-0.7,2.5-1.1
								c1.4-2.2,3.3-4.9,4.3-7.1c11.9-4.5,20.1-10.8,29.3-18.3c2.5-1.7,4.7,1.9,6.6-3.5c1-0.7,2-1.6,3-2.3c4.8-0.6,6.6-2.8,9.5-1.9
								c2-2.5-0.3-4.5,0.6-4.8c0.7-0.4,1.2-0.7,1.9-1.1c3.3-0.3,2.8-2.4,3.6-3.2c3.5-0.1,2.6-2,3.5-2.2c0.2-0.1,0.3-0.2,0.5-0.3
								c1.8-1.1,3.6-2.2,5.3-3.5c0.4-0.3,0.8-0.6,1.3-0.9c1.7-0.2,3.6-0.5,5.3-0.9c0.8-0.7,1.6-1.4,2.4-2.1c0.4-0.4,0.8-0.7,1.2-1.1
								c0.4-0.4,0.8-0.7,1.2-1.1c0.7-0.6,1.4-1.1,2.1-1.7c0.1,0.1,0.3,0.4,0.4,0.5c2.7-1,5.3-3.1,7.8-5.1c2.4-2.1,4.6-4.1,6.9-5
								c0.6-3.4,4.4-4.5,5.7-6.5c2.7,1.5,2.7-1.3,4.8-1.4c0.9-0.7,1.9-1.2,2.8-1.9c3-2.2,4.9-6.9,9.3-6.4c0.4-2.1,0.9-4.1,1.3-6.1
								c0.7,0.2,1.6,0.4,2.5,0.6c1-1.2,1.4-1.6,1.8-2.1c0.8,0.5,1.7,2,2.7,1.6c1.6-2.3,1.1-3.9-0.1-7.1c1.2-0.5,2.3-1.1,3.4-1.5
								c0.3-0.9,0.8-1.7,1.1-2.6c-0.4-1-0.9-2.2-1.4-3.2c1.9,0.2,3.8,0.2,5.7,0.3c0.3-1.5,0.7-2.7,1.1-4c0.7-1.1,1.2-2.4,1.7-3.5
								c0.2-0.3,0.4-0.5,0.6-0.8l2.7-3.5c1.1-0.1,2.2-0.2,3.3-0.3c1.4-2.4,0.9-6,4.9-6.6c1.6-1.9,3.5-3.9,5.2-5.7
								c1.3-1.5,4.2-0.9,6.1-1.8C274.7,70.8,275.5,71.3,276.5,72z"/>
						</g>
						<g>
							<path class="st7" d="M240.7,90.9c-0.7,0.6-1.4,1-2.3,1.6c-1.9,0.8,0,2.5,0.9,4.1c-0.9,0.6-1.9,1.3-2.7,1.9
								c0.3,1.2,0.7,2.4,1,3.6c0.6,0.5,1.3,1,1.8,1.4c1.1,3.2,1.6,4.8,0.1,7.1c-1,0.4-1.9-1.1-2.7-1.6c-0.4,0.4-0.7,0.9-1.8,2.1
								c-0.9-0.2-1.8-0.4-2.5-0.6c-0.5,2-1,4-1.3,6.1c-4.5-0.5-6.3,4.2-9.3,6.4c-0.9,0.7-1.9,1.2-2.8,1.9c-2.1,0-2.1,2.8-4.8,1.4
								c-1.4,2-5.2,3.1-5.7,6.5c-2.3,0.8-4.5,2.9-6.9,5c-2.5,2-5,4.1-7.8,5.1c-0.1-0.1-0.3-0.4-0.4-0.5c-0.7,0.6-1.4,1.1-2.1,1.7
								c-0.4,0.4-0.8,0.7-1.2,1.1c-0.4,0.4-0.8,0.7-1.2,1.1c-0.8,0.7-1.6,1.4-2.4,2.1c-1.7,0.4-3.5,0.7-5.3,0.9
								c-0.4,0.3-0.9,0.6-1.3,0.9c-1.8,1.3-3.6,2.4-5.3,3.5c-0.2,0.1-0.3,0.2-0.5,0.3c-0.9,0.2,0,2.1-3.5,2.2
								c-0.8,0.8-0.2,2.9-3.6,3.2c-0.7,0.4-1.2,0.7-1.9,1.1c-1,0.4,1.4,2.4-0.6,4.8c-3-0.9-4.7,1.3-9.5,1.9c-1,0.7-2,1.6-3,2.3
								c-1.9,5.4-4.1,1.8-6.6,3.5c-9.2,7.5-17.4,13.8-29.3,18.3c-1,2.2-2.9,4.9-4.3,7.1c-0.9,0.4-1.6,0.8-2.5,1.1
								c-0.4,1.2,1.6,3.9-0.7,3.7c-2.3,1.8-4.8,3.4-7.1,5c0.2,0.4,0.4,0.9,0.7,1.5c-3.1,0.7-3.7,3.1-6.1,1.1
								c-2.5,2.2-3.5,7.5-5.7,10.4c0,1.1,0.1,2.3,0,3.4c1.1,0.7,2.3,1.2,3.4,2c0.3,0.6,0.7,1.3,1,2c-0.8,0.6-1.7,1.3-2.5,2.1
								c0.2,1.7,0.8,4.6-1.5,5c-1.6,0.4-3.1,0.8-4.6,1.4c-0.4,0.2-0.7,0.3-1,0.5c-0.9,0.1-1.8,0.4-2.7,0.5c-2.3,2.6-3.4,5.9-6.8,7.9
								c-2.3,1.6-4.6,3.1-6.7,4.6c-0.2,0.1-0.3,0.2-0.5,0.3c-0.4-0.7-0.9-1.4-1.2-1.9c0.6-1.1,1.2-1.9,1.9-2.9
								c-0.4-0.7,0.7-1.9-0.6-3.2c-3,2.6-6.6-1.8-8.4,1.2c-0.6,0.5-0.9,1.1-1.5,1.7c-2.2-0.2-4.4-0.4-6.6-0.6l5.1-4.8
								c0.9-0.8,1.8-1.7,2.8-2.4c1-0.8,2.1-1.5,3.2-2.1c2.2-1.2,4.7-2.1,7.2-2c2.7-0.8,0.6-5.2,2.8-5.8c1.6-3.5,3.2-7.1,5.7-10
								c-0.2-1.3-0.3-2.7-0.4-4.1c1.1-0.7,2-1.5,3.1-2.4c0.1-0.1,0.3-0.2,0.4-0.2c1.9,0.5,3.8,1,5.8,1.5c-0.3-1.8-0.7-3.6-1-5.5
								c-1.3-0.3-2.7-0.5-4.1-0.7c-0.3-0.6-0.7-1.3-1-2c0.1-0.4,0.2-0.6,0.1-1c1.5-0.7,3-1.5,4.4-2.1c1.3-0.2,2.6-0.7,3.9-0.9
								c-0.3-0.8-0.4-1.6-0.5-2.3c0.9-0.4,2-0.9,3-1.4c1.3-1.3,2.8-2.6,4.2-3.7c1.7-3.4,4.2-6,11.1-6.9c1.3-0.1,2-1.8,3-1.4
								c1.2-1.1,2.4-2.2,3.7-3.3c1.7-0.6,3.5-1.1,5.3-1.5c2.5-2.1,5-4.1,7.6-6.2c1-0.1,1.8-0.3,2.8-0.4c1.7,0.1,1.3-2.1,2.1-2.8
								c1.7-0.9,3.4-1.9,5-2.8c1.7-1,3.4-1.9,5.1-2.9c2.3-1.9,4.7-3.7,7-5.5c-0.2-0.3-0.2-0.4-0.4-0.7c0.3-0.1,0.6-0.3,1-0.5
								c1.1,0,2.3-0.2,3.6-0.1c1.6-1.3,4.2-1.6,4.9-3.7c0.5,0.2,1.1,0.5,1.8,0.8c0.6-1.3,1.2-2.5,1.8-3.8c0.9-0.2,1.7-0.5,2.6-0.7
								c0.2-1.1-0.4-2.6,0.5-3c1,0,1.9,0,3-0.2c1-0.2,1.3-1.2,1.7-2c0.8-0.3,1.6-0.6,2.4-1c0.8-0.4,1.6-0.8,2.3-1.2
								c0.8-0.5,1.7-1.2,2.4-1.7c-0.3-0.4-0.6-0.8-0.9-1.2c0.7-0.9,1.3-1.7,2-2.4c0.1,0.1,0.3,0.4,0.5,0.6c0.7-0.9,1.2-1.7,2-2.4
								c0.9-0.6,1.6-1.2,2.4-1.8c0.7-1.4,4.1-1.6,3.6-4.9c1.4-0.1,3-0.3,4.4-0.4c0-1.8,2.5-2.1,2.4-4.1c1.1,0.3,2.5,0.6,3.6,0.9
								c0-1.1,0-2,0-3c1.3-0.9,2.6-1.7,4-2.6c-0.2-0.2-0.5-0.5-0.6-0.6c0.7-0.7,1.5-1.4,2.2-2c1.2-1.2,2.5-2.5,3.7-3.6
								c0.4,0.3,0.7,0.7,1.1,1c0.1,2.1-0.2,3.6-0.9,4.8c-0.7,1.2-1.7,2.1-2.7,3.1c0.3,0.3,0.7,0.7,1,1c2.5-0.8,4.1-2.3,5.4-3.6
								c1.3-1.3,2.4-2.3,3.9-2.1c1.8-1.2,4.1-3,6.1-5.1c2-2.1,3.6-4.5,4.2-7.1c1.2,0.1,2.6,0.3,3.8,0.4c0.1-0.6,0.3-1.1,0.4-1.7
								c1-0.6,1.8-1.3,2.8-1.9c-0.8-0.6-1.6-1.3-2.4-1.9c-0.6-2-1.2-4.2-1.8-6.3c-1-0.1-1.8-0.1-2.8-0.2c0.1-1.3-2.7-2.1-1.4-3.2
								c1.1-0.3,2.3-0.4,3.5-0.6c0.5,0.9,1.2,1.9,1.7,2.7c1.2,0.1,2.6,0.2,3.8,0.3c2.1-2,3.4-5.1,8.7-5.6
								C240.9,89.2,240.8,90,240.7,90.9z"/>
						</g>
						<g>
							<path class="st2" d="M243.8,99.4c-0.3,0.9-0.8,1.7-1.1,2.6c-1,0.5-2.2,1.1-3.4,1.5c-0.5-0.4-1.1-0.9-1.8-1.4
								c-0.3-1.2-0.7-2.4-1-3.6c0.8-0.7,1.8-1.3,2.7-1.9c1-0.2,2.1-0.2,3.2-0.4C242.9,97.2,243.4,98.4,243.8,99.4z"/>
						</g>
						<g>
							<path class="st2" d="M87.1,163.5c-0.5,0.4-1.1,1-1.6,1.6c-2.1,0.6-4.3,1.3-6.4,2.1c-0.4-0.7-0.7-1.5-1-2
								c-1.5,0.7-3.1,1.4-4.6,2.1c-0.6-0.4-1.1-0.7-1.8-0.9c-0.3-3.2,2.7-4.6,5.3-3.4c-0.1-0.8-0.3-1.5-0.5-2.3
								c2.6-1.1,5.2-1.9,7.9-2.7c1.9-0.7,3.8-1.2,5.8-1.9c0.8,1.4,1.7,2.8,2.6,4C90.9,161.3,89,162.3,87.1,163.5z"/>
						</g>
						<g>
							<path class="st4" d="M56.5,255.3c4.6,5.3-6,3.8,1.2,10.3c0.9,0.9,1.8,1.9,2.7,2.9c0.6,0.8,1.2,1.7,1.8,2.5
								c-0.8,0.5-1.6,1-2.4,1.6c0.4,1.1,0.8,2,1.2,3.1c-0.5,1.5-0.9,2.9-1.3,4.5c-3.4-2.3-4.4-3.6-5.3-4.7c0.1-0.5,0.2-1,0.4-1.4
								c0.2-0.4,0.4-0.8,0.5-1.2c-1.2-1.3-2.6-2.7-3.7-4.1c-0.1-0.1-0.3-0.4-0.4-0.5c-0.9-1.2-1.6-2.1-2.3-3.1c-1,0.6-1.9,1.4-2.8,2
								c-0.6-0.6-1.2-1.1-1.8-1.7c-1.6-1.4-3.1-2.7-4.6-4.2l1.8-1.9c0.3-0.3,0.6-0.6,0.9-0.9c0.3-0.3,0.6-0.6,1-0.8
								c0.1-0.1,0.3-0.2,0.4-0.3l2.3,3.1c0.7,0.1,1.4,0.3,2.2,0.5c0.5-1.7,1-3.2,1.5-4.9c-1.7-1.6-3.3-3.3-5-5.1
								c-0.1-0.1-0.3-0.4-0.5-0.7c-0.7-1.1-1.2-2.3-1.8-3.5c-0.8-0.2-1.8-0.6-2.7-0.9c-1-1.3-2.1-2.3-3.1-3.6
								c-0.1-0.1-0.3-0.4-0.5-0.7c0.6-1,1.2-2,1.8-3c1.6-1.3,4.2,1.1,5.8,2.5l2.2,3.2c0.6,0.5,1.2,1.1,1.8,1.7
								c0.3,1.4,0.6,2.7,0.9,4c0.6,0.7,1.5,1.5,2.1,2.3c0.2,0.5,0.3,1,0.6,1.6C53.1,254.4,54.7,254.7,56.5,255.3z"/>
						</g>
						<g>
							<path class="st2" d="M65.2,277.5c-1.6-0.7-2.8-1.3-4.2-1.9c-0.4-1.1-0.8-2-1.2-3.1c0.8-0.5,1.6-1,2.4-1.6
								c0.9,0.8,1.7,1.4,2.7,2.1C64.9,274.6,65,275.9,65.2,277.5z"/>
						</g>
						<g>
							<path class="st2" d="M26.8,256.2c2.2,1.6,4.4,3.2,6.6,4.7c0.3,0.4,0.6,0.8,0.9,1.1c0.3,0.8,0.7,1.5,1.1,2.2
								c2.1,2.4,4.5,4.9,6.8,7.4c2,1.5,4.9,3.2,3.5,4.2l-1.2,0.9c-1-1.2-2-2.4-3-3.6c-3.2-2.1-7.1-2.4-7.2-7.1
								c-4.5-1.6-9.8-5.6-8.4-9.2c-1.4-2.6-2.7-5-4.2-7.6l1.4-1.1c0.6,0.2,1.2,0.3,1.8,0.6C25.5,251.3,26.1,253.7,26.8,256.2z"/>
						</g>
						<g>
							<path class="st3" d="M286.4,63.3c-2.2-0.9-4.6-4.1-8.1-2c0.8-1.7,1.7-3.3,2.5-4.9c2.7-0.4,7.9,2,7.2,4.7
								C287.5,61.8,286.9,62.5,286.4,63.3z"/>
						</g>
						<g>
							<path class="st3" d="M254.7,38c1.2,1.2,2.3,2.3,3.4,3.4c1.1,7.4-4.5,0.2-5,4.5c-0.5,0.7-1,1.5-1.5,2.2
								c-1.3,0.4-2.6,0.8-3.9,1.3c0.7-1.9,1.5-3.7,2.2-5.6c0.8-2.5,1.5-5,2.3-7.4C253.5,37.2,254.2,37.6,254.7,38z"/>
						</g>
						<g>
							<path class="st3" d="M244.6,53.7c1.5,2.9,7,4.6,3.1,6.5c-2.1,0.4-3.9-0.9-5.9-1.3C242.7,57.1,243.7,55.4,244.6,53.7z"/>
						</g>
						<g>
							<path class="st3" d="M283.1,87.9c-0.6,0.8-1.1,1.5-3,1.3c-0.7,0.9-1.4,1.9-2,2.7c-0.4,1.1-0.8,2.2-1.4,3.2
								c-0.7-0.4-1.4-0.6-2.2-0.8c-0.3-0.2-0.5-0.4-0.7-0.5c0.8-1,1.6-2.2,2.4-3.2c-0.2-1-0.4-2.1-0.5-3.1c0.6,0,1.2,0,1.9-0.1
								c0.6-1.1,1.1-2.3,1.6-3.6c0.4,0,0.8,0,1,0C281.2,85.3,282.1,86.6,283.1,87.9z"/>
						</g>
						<g>
							<path class="st3" d="M253.7,70.3c0.1,4.3-1.6,5.9-3.8,5.1C250,71.5,250.7,69.6,253.7,70.3z"/>
						</g>
						<g>
							<path class="st3" d="M222.2,62.9c-2.3,2.1-4.6,4.3-6.8,6.3c-0.8-0.1-1.4-0.1-2-0.1c0,0.8-0.1,1.6,0,2.5
								c-4.1,4.8-8.2,9.4-12.4,13.9c-4.2,4.4-8.4,8.7-12.7,12.7c-1-1.3-1.9-2.5-2.8-3.8c1.4-0.9,3-1.8,4.1-2.9
								c1.1-1.1,1.9-2.4,1.8-4.3c1.7-0.7,2.2-2.2,2.7-3.9c0.2-0.8,0.4-1.7,0.7-2.5c0.3-0.8,0.7-1.6,1.3-2.2c1.1,0.7,2.2,2.2,3.3,2.1
								c1.3-1.1,0.9-3.6,0.9-5.5c0-1.9,0.5-3.4,3.8-2.5c0.5-1.6,0.8-3.1,1.1-4.8c1.1-0.6,2.2-1.2,3.4-1.7c0.7,0,1.2,0,1.8,0.1
								c1-0.7,1.8-1.5,2.8-2.2c1.3-1.4-0.4-6.3,4.1-3.9c-0.1-1.2-0.3-2.6,0.5-3.4c1.6,1.7,3.3,0.7,6.4,2
								C223.6,60.2,222.9,61.6,222.2,62.9z"/>
						</g>
						<g>
							<path class="st3" d="M258.6,114.5c-0.7,0.8-1.4,1.8-2.2,2.7l-1.9-1.5c0.8-0.9,1.5-1.8,2.2-2.7L258.6,114.5z"/>
						</g>
						<g>
							<path class="st3" d="M251.1,124.6c0.4,2.7,0,4.3-2.3,2.6C249.5,126.4,250.3,125.5,251.1,124.6z"/>
						</g>
						<g>
							<path class="st3" d="M240.6,132.5c-0.4,2.2-1.2,3.9-2.1,5.4c-1,1.5-2.1,2.7-3.4,3.7c-2.4,2.2-5.2,3.7-7.4,6
								c-0.5,0.9-1,1.8-1.6,2.6c-0.6,0.9-1.3,1.7-2.1,2.6s-1.6,1.7-2.4,2.5c-0.4,0.4-0.9,0.8-1.3,1.2c-0.4,0.4-0.9,0.8-1.4,1.1
								c-3.7,3-7.7,5.6-11.1,7.8c-1.4-0.8-2,0.6-2.9,1.1c-0.1,0.3,0,0.6,0,1c-2.2,2.2-4.6,4.1-7,5.9c-0.6,0.4-1.2,0.9-1.8,1.3
								c-0.6,0.4-1.2,0.8-1.9,1.2c-1.2,0.8-2.5,1.5-3.7,2.3c-2.5,1.5-4.8,3.1-7.1,4.9c-2.3,1.7-4.4,3.7-6.3,6.1
								c-1.6-0.8-2.6,0.8-3.9,1.3c-1.1,2.3-3.4,3.7-5.9,5.1c-2.5,1.3-5.3,2.4-7.5,3.9c0,3.4-5.2,3-6.5,5.8c-1.4,0.5-2.7,1.4-3.8,2.3
								c-1.1,0.9-2.2,2-3.2,2.9c-2.1,2-4.5,3.7-7.9,3.7c0.2-1-0.5-3.5,0.9-5.6c-0.7-1.4-1.4-2.7-2.1-4.2c2.6-1.6,5.1-2.9,7.7-4.5
								c0.6,0.8,1.3,1.7,1.9,2.5c0.5-1.3,1-2.9,1.6-4.2c2.7-1.5,5.4-3.2,8.1-4.9c1.9-0.2,4.4-0.7,4.3-3.9c1.1-0.4,2.2-0.6,3.4-0.9
								c1.5-1.2,3-2.3,4.6-3.4c1.3-1.1,2.6-2.3,4-3.2c0.2-0.1,0.3-0.2,0.5-0.3c0.9-1.1,1.7-2.1,2.6-3.4c1-0.8,2-1.7,3-2.5
								c0.9-1,1.9-2,2.9-2.8c1.2-0.6,2.5-1,3.7-1.4l4.8-3.1c1.6-1.1,3.1-2.2,4.7-3.3c1-0.7,1.9-1.4,2.8-2c1-0.7,1.8-1.3,2.8-2
								c0.6-0.4,1.3-0.9,1.8-1.3c1.5,0.1,2.2-2,3.7,0c1.8-1.6,4.4-2.7,4.9-6c1.3,0.5,2.6,0.5,3.9,0.1c0.6-0.2,1.2-0.4,1.8-0.8
								c0.6-0.3,1.1-0.8,1.7-1.2c2.2-1.8,4-4.2,5.2-5.8c2.3-2.2,4.5-3.8,6.7-5.6c2.1-1.8,4.4-3.8,6.8-6.5
								C238.3,133.6,239.4,133.1,240.6,132.5z"/>
						</g>
						<g>
							<path class="st3" d="M184.5,103c-1.6,1.4-3.1,2.9-4.8,4.3c-1.2,0-2.5,0-3.7-0.1c-2.1-3.5,2.4-2.6,0.6-5.6
								c-0.7-2.3,2.7-1.6,4.5-1.9c0.8-0.8,1.6-1.4,2.4-2.2c0.7,0.9,1.6,0.7,3.5,2C186.1,100.7,185.4,101.8,184.5,103z"/>
						</g>
						<g>
							<path class="st3" d="M164,122.3c-1.2,0.6-2.6,1.2-3.9,1.7c-0.7-0.1-1.4-0.2-2-0.4c-1,2.5,1.3,4.2,0,4.6
								c-0.5,0.5-0.8,1.1-1.2,1.7c-0.3,0.2-0.8,0.5-1.2,0.7c-1.7,0.7-3.3,1.3-4.9,2.1c-0.7-0.2-1.3-0.3-1.9-0.1
								c-0.6,0.1-1.2,0.4-1.7,0.8c-1,0.8-2,2.3-3,4c-1.9,0.3-3.7,0.8-5.5,1.2c-0.5,1.2-0.9,2.3-1.5,3.3c-1.8,0.8-3.7,1.4-5.6,2.2
								l-2.6,1.4l-2.7,1.3c-1.1-0.2-2.1-0.3-3-0.3c-0.9,0.5-1.8,0.9-2.7,1.3c-0.1,0.2-0.1,0.6-0.1,1c-0.8,0.4-1.8,0.9-2.7,1.3
								c-1.6-1-3.3-1.9-4.9-2.9c-1.5,0-0.9,2.2-2.5,2l-3.8,1.8c-0.9,0.4-1.9,0.9-2.7,1.3c0.2,1,0.5,2.1,0.9,3l-1.5,0.7
								c-1.6,0.2-3.3,0.4-5.1,0.5c-1.7,1.1-3.2,2.2-5,3.2c-0.1,0-0.3,0.1-0.4,0.2c-0.9-1.2-1.8-2.6-2.6-4c0.7-1,1.3-2.2,1.9-3.4
								c0.9-0.4,1.9-0.9,3.2-0.6c0.8-1.1,1.8-2.1,2.7-3c0.3-1.8,2.3-1.6,3.4-2.5c1-0.5,1.9-0.9,2.8-1.3c4.1-1.2,8.3-2.6,12.2-4
								c0.1-0.4,0.3-0.7,0.5-1.2c1.7-0.3,3.4-0.6,5.2-0.8c0.6-0.3,1.2-0.6,1.8-0.9c3.4,0.8,4.3,0.5,4.6-0.7c0.6-0.5,1.2-1.2,1.8-1.7
								c2.4,0-1.2-3.4,0.5-3.9c1.1,0.7,2.2,1.2,3.3,1.9c1.4-0.7,5.5,1,3.4-2.8c1.6,0.4,3.6-0.7,4.1-2.3c2,0,2-0.7,2.8-3.4
								c2.5,3.2,2.9,2.8,2.4-0.5c2.2,0.2,3.9-0.4,5.4-1.4c0.7-0.5,1.4-1,2-1.6c0.6-0.5,1.1-1.1,1.5-1.7c1.4-0.3,3.7-0.6,2.5-2.7
								c1.4-1.2,2.7-1.9,3.9-2.7c0.6-0.4,1.2-0.8,1.7-1.4c0.5-0.6,1-1.2,1.4-2c-3.4-2.5,0.4-3,1.4-2.9c2.1,1.3,3.2,0.5,4.3-0.3
								c1.1-0.8,2.1-1.7,4.3-0.7c-1,1.3,0,3.7-1,4.9c-1.7,1.6-3.4,3.3-5.1,4.9l-1.3,1.2l-1.4,1.2C165.8,120.8,164.9,121.6,164,122.3
								z"/>
						</g>
						<g>
							<path class="st3" d="M135.3,216.6c-1.3,2.5-4.6,4.9-7,3.2C128.4,217.1,131,217.3,135.3,216.6z"/>
						</g>
						<g>
							<path class="st3" d="M122,224.5c-0.6,2.4-3.4,3.7-5,3.2C115.9,225.6,117.8,224.4,122,224.5z"/>
						</g>
						<g>
							<path class="st3" d="M115,228.5c-0.9,2.9-2.3,3.6-4.2,3.5c-1.3,0.6-2.5,1.2-3.8,1.8c0.1-0.8-0.6-3.3,3.2-3.1L115,228.5z"/>
						</g>
						<g>
							<path class="st3" d="M103.2,235.6c-0.8,3.1-2.2,3.8-3.9,3.7c-1,1-2.1,2.1-3.1,3.3c-1.1,1.1-2.4,2.2-3.5,3.3
								c-2.8,1.2-2.6,4.9-6.2,6.6c-0.5,0.6-1,1.2-1.5,1.8c-0.5,0.6-1,1.1-1.6,1.7c-1,0.7-2.4-0.1-3.8,0.2c-0.2-1-0.5-2.1-0.8-3.1
								c0.9-0.5,1.7-0.9,2.6-1.4c1.4-0.2,2.8-0.4,4.3-0.4c-0.2-1.2-0.4-2.2-0.6-3.2c1,0,2.8,0,2-2.8l0.9-0.4
								c1.3-0.1,3.5-0.2,2.9-3.3l0.9-0.4c1.3,0.1,2.5,0.1,3.6,0.1c1.5-1.1,0.1-2.6,3.1-3.3C100,237.1,101.6,236.3,103.2,235.6z"/>
						</g>
						<g>
							<path class="st3" d="M73.1,261.6c3.2,5.1-1.2,4.3-2.9,5.3c0.4,3.4-3.7,3.8-1.4,7.2c-1.1,1.3-1.8,0.2-4-1
								c-1-0.7-1.8-1.3-2.7-2.1c1.3-1.7,2.5-3.5,3.9-5.2l1.3-0.8c0.1-0.1,0.3-0.2,0.4-0.3c0.2-0.5,0.5-0.9,0.8-1.4
								C70.1,262.8,71.6,262.1,73.1,261.6z"/>
						</g>
						<g>
							<path class="st3" d="M65.2,277.5c1.3,1.3,2.9,2.7,2.3,3.1c1,2,1.1,3.2,1.1,4.7c-2.2-0.5-4.4-2.9-8.4-4.5
								c0.7,1.3,1.4,2.8,2.1,4.1c-3.5-3.9-4.9,0.6-6.9-1.6c-0.4-0.5-0.7-0.9-1-1.3c-1.9-1-4.2-1.9-5.6-2.5c-1-1.2-2.1-2.5-3-3.6
								c1.4-1-1.5-2.7-3.5-4.2c-2.3-2.5-4.7-5-6.8-7.4c-0.4-0.7-0.8-1.4-1.1-2.2c1.7-0.3,3.5-0.6,5.2-0.9c1.6,1.5,3,2.8,4.6,4.2
								c0.6,0.6,1.2,1.1,1.8,1.7c1.3,0.8,2.7,1.8,4,2.7c1.5,1.9,2.9,3.7,4.4,5.6c0.9,1.2,1.9,2.4,5.3,4.7c0.4-1.6,0.8-3,1.3-4.5
								C62.4,276.3,63.6,276.8,65.2,277.5z"/>
						</g>
						<g>
							<path class="st3" d="M14.7,236.1c0.9,2.1,1.3,3.5,0.1,3.8c-2.8,0.3-4.3-1.4-5.8-3.3c0.1-2.1,2.4-2.6,4.2-2.4
								C14,235.3,14.3,235.6,14.7,236.1z"/>
						</g>
						<g>
							<path class="st6" d="M247.1,50.2c0.9,1.8-0.3,4.9-2.5,3.5c-0.1-1.8-4.3-3.2-2.3-4.8C243.9,49.4,245.6,49.8,247.1,50.2z"/>
						</g>
						<g>
							<path class="st6" d="M239.5,60.5c1.7,1.6-0.1,2.2-0.9,2.6c-1.4,1.1-2.9,2.2-4.5,3.3c-2.9-3.1-1-5.3,0.6-7.3
								C236.4,59.6,238.1,60.1,239.5,60.5z"/>
						</g>
						<g>
							<path class="st6" d="M86.2,237c1.4-0.6,2.9-1,4.6-1.4c2.3-0.4,1.6-3.3,1.5-5c0.2,1.7,0.8,4.6-1.5,5
								C89.2,236,87.7,236.4,86.2,237z"/>
						</g>
						<g>
							<path class="st6" d="M86.4,239.5c-0.9,0.8-2.7,0.7-1.7,4.5c-0.3,0.7-0.8,1.5-1.1,2.2c-0.9,0.8-1.9,1.5-2.7,2.3
								c-1.2,0.1-2.3,0.2-3.5,0.1c-0.2,1.8-2.1,1.9-2.3,4l-3,1.7c-0.8-1.4-1.7-2.6-3.4-3.5c0.2-0.1,0.3-0.2,0.5-0.3
								c2.2-1.6,4.5-3,6.7-4.6c3.3-2,4.5-5.3,6.8-7.9c0.9-0.1,1.8-0.4,2.7-0.5C85.7,238.2,86,238.9,86.4,239.5z"/>
						</g>
						<g>
							<path class="st6" d="M62.2,271c-0.6-0.8-1.2-1.7-1.8-2.5c0.6-1.4,1.2-2.6,1.8-4c0.6-1.5,2.2,0.4,3.8,1.3
								C64.7,267.5,63.5,269.3,62.2,271z"/>
						</g>
						<g>
							<path class="st4" d="M258.6,23.1c3.1,4.3-1.4,6-2.4,8.8c-1.6-0.9-3.3-1.8-4.9-2.5C253.8,27.2,256.2,25.2,258.6,23.1z"/>
						</g>
						<g>
							<path class="st4" d="M215.3,69.2c0.1,1.1,3,2.7-1.9,2.4c-0.1-0.9-0.1-1.7,0-2.5C214,69.1,214.6,69.2,215.3,69.2z"/>
						</g>
						<g>
							<path class="st4" d="M227.5,94.8c0.6,2,1.3,4.2,1.8,6.3c0.8,0.6,1.6,1.3,2.4,1.9c-1,0.6-1.8,1.3-2.8,1.9
								c-0.1,0.6-0.3,1.1-0.4,1.7c-1.2-0.1-2.6-0.3-3.8-0.4c-0.6,2.5-2.2,5-4.2,7.1c-2,2.1-4.3,3.9-6.1,5.1
								c-1.6-0.2-2.6,0.8-3.9,2.1c-1.3,1.3-2.9,2.8-5.4,3.6c-0.3-0.3-0.7-0.7-1-1c1.1-1,2-1.9,2.7-3.1c0.7-1.2,1-2.7,0.9-4.8
								c-0.4-0.3-0.7-0.7-1.1-1c-1.1,1.1-2.4,2.4-3.7,3.6c-0.7,0.7-1.5,1.4-2.2,2c0.1,0.1,0.3,0.3,0.6,0.6c-1.4,0.9-2.7,1.7-4,2.6
								c0.1,1,0,1.9,0,3c-1.1-0.3-2.5-0.6-3.6-0.9c0.2,2-2.3,2.3-2.4,4.1c-1.5,0.1-3,0.3-4.4,0.4c-0.2-0.5-0.3-1-0.5-1.4
								c4-0.2-0.4-5.7,3.9-3.1l1.9-1.6c1.1-0.8,2.4-1.4,3.4-2.1c0.6-1.4,1-2.9,1.4-4.4c1.2-0.4,2.4-0.9,3.7-1.2
								c0.1-0.9,0.2-1.7,0.3-2.6c1.3-0.1,2.6-0.3,3.8-0.5c-0.1-1.3,1-1.8,4.5-2.2c0.2,0.9,0.5,1.9,0.6,2.7c3.9-0.6,1.8-3.1,2.7-3.8
								c1.1-1.6,3.3-2.7,3.3-4.7c2-2.2,4-4.4,5.9-6.7c0.9-1.1,1.8-2.1,2.7-3.1C225.6,94.7,226.5,94.7,227.5,94.8z"/>
						</g>
						<g>
							<path class="st4" d="M180.9,136.2c-0.8,0.7-1.3,1.5-2,2.4c-0.2-0.3-0.4-0.5-0.5-0.6c-0.7,0.7-1.3,1.5-2,2.4
								c0.3,0.4,0.6,0.8,0.9,1.2c-0.8,0.5-1.7,1.2-2.4,1.7c-0.7,0.4-1.5,0.8-2.3,1.2c-0.8,0.3-1.6,0.7-2.4,1c-0.4,0.8-0.7,1.8-1.7,2
								c-1.1,0.1-2,0.1-3,0.2c0.9-2.1-0.2-4.1,2.8-5.6c1.8-0.7,3.4-1.5,5.1-2.4c0.2-0.1,0.3-0.2,0.4-0.3c0.9-1.2,1.9-2.5,2.8-3.7
								c1-0.5,1.9-0.7,2.9-1.2c1.4,0.1,2.6,0.1,3.9,0.1C182.5,135,181.8,135.6,180.9,136.2z"/>
						</g>
						<g>
							<path class="st4" d="M160.1,124c0.7,1.5,0.7,2.9,0.8,4.2c-1,0.1-1.9,0.1-2.8,0.1c1.3-0.5-1-2.2,0-4.6
								C158.8,123.8,159.4,123.9,160.1,124z"/>
						</g>
						<g>
							<path class="st4" d="M149.6,159.4c-2.4,1.8-4.7,3.6-7,5.5c-1.7,1-3.4,2-5.1,2.9c-1.7,1-3.4,1.9-5,2.8
								c-0.8,0.8-0.5,2.9-2.1,2.8c-0.9,0.1-1.8,0.3-2.8,0.4c-2.6,2.1-5,4.1-7.6,6.2c-1.8,0.5-3.6,0.9-5.3,1.5
								c1.3-1.5,2.6-2.9,3.8-4.4c3-1.4,2.8-4.3,8-5.3c1.2-1.3,2.4-2.4,3.5-3.5c1.7-1.9,3.1-2.8,4.6-4.8c1.9-0.8,4-1.4,6-2.1
								c0.7-2.5,3.8-2,5.3-2c1.1-0.2,2.2-0.4,3.2-0.8C149.4,158.9,149.5,159.1,149.6,159.4z"/>
						</g>
						<g>
							<path class="st4" d="M116.1,152.7c-0.4,0-0.8-0.2-1.2-0.2c-0.5,1.3-1,2.6-1.4,4.1c-0.3,0.1-0.6,0.3-1,0.5
								c-2.2-0.8-4.2-1.3-7.7-1.6c-0.3-0.9-0.6-2-0.9-3c0.9-0.4,1.8-0.9,2.7-1.3l3.8-1.8c1.5,0.2,1-2.1,2.5-2c1.6,1,3.3,1.9,4.9,2.9
								C117.2,151.1,116.6,151.9,116.1,152.7z"/>
						</g>
						<g>
							<path class="st8" d="M109.5,166.1c-0.3,0.1-0.6,0.3-1,0.5c-0.1-0.3-0.2-0.4-0.4-0.7c-2.9,0.4-2.3,2.6-4.5,3.9
								c-0.8,0.4-2,1.3-2.7-0.5c-2.7,0.3-2.6,2.6-3,4.8c-5,0.7-8.1,4.6-12.4,5.7c-4.3,1.3,0.2,7.2,1.5,10.5c-1.1,1.2-2.9-1-4.3-1.4
								c-1,1-2,2-2.9,3c0.1,0.9,0.1,1.7,0.1,2.7c-1.1,0.7-2.9,0.7-1.5,4.2c-0.7,0.4-1.4,0.7-2.1,1l0.9,3.9c-2.3,0.2-4.4,1.2-5.6,3.6
								c-0.9,0.6-1.7,1.4-2.7,2.1c-3.2-1.8-3.1,2.1-4.7,5.1c-0.4,0.2-0.7,0.4-1,0.5c-1.3-1.2-2.4-2.2-3.8-3.3
								c-1.6,1.4-3.1,2.8-4.6,4.4c-0.5,1.4-1,2.7-1.4,4.3c-0.8,0.6-1.7,1.5-2.5,2.3c0.3,0.6,0.8,1.2,1.2,1.9c-0.4,0.7-0.8,1.6-1,2.5
								c-1.4,0.8-2.9,1.7-4.2,2.6c0.1,2.6,0.2,5.2,0.5,7.8c-0.4,0.2-0.9,0.5-1.4,0.8c-2.6-3.2-3-2.7-3.5-2.4
								c-0.3,1.4,1.4,2.8,2.2,4.2c0.4,1.3-0.1,2.6-0.6,1.2c-1.6-1.5-4.2-3.8-5.8-2.5c-0.6,1-1.2,2-1.8,3c-2.6,0-3.3,0.5-4.1,1
								c-0.5,0.4-1.1,0.7-1.6,1.1c-0.5,0.4-1.1,0.8-1.6,1.2c-1-1.3-1.9-2.4-2.9-3.7c0.4-0.9,0.6-1.7,0.9-2.7c-2.3-2.7-4.7-5.4-7-8.3
								c-0.1-0.1-0.3-0.4-0.5-0.6c0.5-0.3,0.9-0.6,1.4-1c0.2-0.1,0.3-0.2,0.5-0.3c1.8-0.8,3.6-1.7,5.3-2.6c0.3-0.2,0.6-0.4,1-0.7
								c0.9-0.6,1.9-1.3,2.8-1.9c0.3-1.1-0.3-2.8,0.8-3.2c0.6-0.4,1.2-0.8,2-1.2c1.4,0.1,2.8,0,4.2,0.1c1.7-1.2,4.2-1.8,5.4-4.3
								c-1.1-1.1-2.2-2.2-3.3-3.3c-1.7,0.7-3.4,1.3-5,2.1c0-2.5,3-3.3,1.5-5.5c0.9-0.7,1.7-1.4,2.6-2.1c0.9-0.6,1.7-1.3,2.7-1.9
								c2.7-3,4.1-6.6,8.1-10.8c-3.8,2.4-5.1,0-6.7-0.8c0.1-0.8,0-1.7,0-2.6c1.3-0.2,2.6-0.3,4-0.3c-1-1.7-1.8-3.2-2.7-4.8
								c0.7-0.7,1.5-1.3,2.2-2.1c0.5,0.7,1.1,1.2,1.7,1.8c3.5-3.4,7.3,1.5,8.6-2.8c-0.1-0.1-0.2-0.4-0.4-0.7c1.3-0.7,2.7-1.3,4.1-2
								c1.2-1.1,2.3-2.2,3.4-3.3c-0.4-1.3-0.8-2.5-1.2-3.7c2.5-1.2,4.9-2.4,7.2-3.5c1.7,1.6,3.2,2.9,4.9,4.5
								c0.2,3.1-4.8,1.5-2.9,5.6c1.1,0.4,2.1,0.8,3.2,1.2c1-0.6,2.5-0.8,2.2-2.8c2.4-1.5,4.4-2.9,6.3-4.3c1.9-1.3,3.7-2.5,5.8-3.8
								c2-0.9,4-1.8,6-2.7c0.9-0.2,1.9-0.3,2.7-0.5c1.3-0.8,2.7-1.8,4.1-2.6c1.2,0,2.3,0,3.6,0c0.3-0.1,0.6-0.3,0.9-0.4
								c0.9-0.2,0.6-1.7,3.8-0.8C109.3,162.5,109.9,163.3,109.5,166.1z"/>
						</g>
						<g>
							<path class="st4" d="M104.8,161.5c-1,0.5-1.9,0.9-2.9,1.3c-1.3,0.8-2.7,1.8-4.1,2.6l-3.2-2.8c0.2,1.1,0.3,2.2,0.5,3.3
								c-2,0.9-4,1.8-6,2.7c-1.2-1.2-2.4-2.5-3.5-3.6c0.5-0.6,1.1-1.2,1.6-1.6c1.8-1.2,3.7-2.2,5.7-3.5c0.1,0,0.3-0.1,0.4-0.2
								c1.7-1,3.3-2,5-3.2c1.8-0.1,3.4-0.3,5.1-0.5C103.7,157.9,104.2,159.6,104.8,161.5z"/>
						</g>
						<g>
							<path class="st4" d="M108.1,186.3c-6.9,0.8-9.4,3.4-11.1,6.9C98.7,189.7,101.2,187.1,108.1,186.3z"/>
						</g>
						<g>
							<path class="st5" d="M71.5,178.4c-1.9-4.1,3.2-2.6,2.9-5.6c-1.7-1.6-3.2-2.9-4.9-4.5c0.7-0.7,1.4-1.4,2.2-1.9
								c0.6,0.2,1.2,0.5,1.8,0.9c0.6,1.2,1.1,2.2,1.7,3.5c2.9-0.5,1.6-3.9,3.8-3.6c2.1-0.8,4.3-1.4,6.4-2.1c1.2,1.1,2.3,2.3,3.5,3.6
								c-2,1.3-3.8,2.5-5.8,3.8c-1.9,1.3-4,2.7-6.3,4.3c0.2,2-1.2,2.2-2.2,2.8C73.6,179.2,72.6,178.8,71.5,178.4z"/>
						</g>
						<g>
							<path class="st4" d="M79.1,167.2c-2.3-0.4-0.9,3.1-3.8,3.6c-0.6-1.3-1.2-2.3-1.7-3.5c1.5-0.7,3.1-1.4,4.6-2.1
								C78.4,165.7,78.7,166.5,79.1,167.2z"/>
						</g>
						<g>
							<path class="st4" d="M90.2,200.6c-1.3,0.2-2.6,0.7-3.9,0.9c-0.2-0.4-0.4-0.9-0.7-1.3c0.7-1.1,0.5-2.4,4-1.9
								C89.8,199,90,199.8,90.2,200.6z"/>
						</g>
						<g>
							<path class="st4" d="M87.9,212.8c-1.9-0.5-3.8-1-5.8-1.5c-0.1,0-0.3,0.1-0.4,0.2c-1.1,0.9-2.1,1.7-3.1,2.4
								c0.3,1.3,0.6,2.6,0.8,3.9c-2.3,2.4-2.1,6.7-5.9,8.2c2.2,2.7-3.4,1.2-0.5,4.6c-0.8,1.8-2,3-3.4,3.7c-1.4,0.7-3,1.1-4.6,1.5
								c-1.6,0.4-3.3,0.8-4.7,1.5c-1.4,0.8-2.5,2-3.2,3.9c-0.9,0.8-2.8,0.9-2.8,2.5c1.8,1.4,3.1,0.2,4.4,1.9l1.3,2
								c-0.9,1.1-1.8,2.2-2.7,3.3c-0.8-0.3-1.7-0.7-2.5-1.1c-0.9-1.5-1.8-3.3-2.7-4.8c0-6.3,0.6-9.2,3.1-10.9
								c0.7-1.2,1.5-2.6,2.1-3.8c-1.3,0.2-2.8,0.4-4.2,0.5c-0.8-1.2-1.6-2.6-2.4-3.9c0.2-0.9,0.7-1.7,1-2.5c1-0.6,2-1.1,2.9-1.6
								c1.1-0.4,2.2-0.6,3.3-0.9c1.9-2.2,2.9-4.6,5.2-6.4c-0.2-0.3-0.3-0.6-0.4-0.7c0.3-0.2,0.6-0.3,1-0.5c1.9-1,3.9-2,5.8-3
								c0.9-0.8,1.7-1.6,2.6-2.2c0.7-0.2,1.6-0.2,2.3-0.3c1-0.8,2.1-1.7,3.1-2.4c0.2-0.4,0.4-0.7,0.7-1.2c1.1-0.2,2.2-0.5,3.3-0.7
								c0.4,0.7,0.7,1.4,1,2c1.4,0.2,2.8,0.4,4.1,0.7C87.2,209.1,87.6,210.9,87.9,212.8z"/>
						</g>
						<g>
							<path class="st5" d="M49.3,193c-4,4.2-5.3,7.8-8.1,10.8c-0.9,0.6-1.8,1.2-2.7,1.9c-0.9,0.7-1.7,1.4-2.6,2.1
								c1.5,2.1-1.5,3-1.5,5.5c1.7-0.8,3.3-1.4,5-2.1c1.1,1.1,2.2,2.2,3.3,3.3c-1.2,2.4-3.8,3.1-5.4,4.3c-1.5-0.1-2.9,0-4.2-0.1
								c-0.7,0.4-1.3,0.8-2,1.2c-1,0.4-0.5,2.1-0.8,3.2c-0.9,0.6-1.9,1.3-2.8,1.9c-0.6-1.4-1.2-2.9-1.8-4.5c-0.9,0.6-1.9,1.3-3,2
								c-0.1,0.1-0.3,0.2-0.4,0.3c-0.4-0.5-0.8-1.2-1.3-1.8c-0.9-1.3-1.8-2.5-2.7-3.8c-3-2.9-4.1-2.9-4.6-4.3c0.3-1,0.7-1.9,1.1-2.7
								c1.3,0.7,2.6,1.4,3.8,2.1c1.1-0.8,2.3-1.4,3.3-2.3c0.9-0.9,1.6-1.9,1.5-3.6l-2.2-3.2c2-1.2,3.8-2.4,5.8-3.6
								c1.6-1.7,3.2-3.4,5-4.9c0.8-2.1,2.4-3,4-3.9c1.4-1.6,3-3,4.5-4.4c1.1-0.6,2.1-1.2,3.2-1.8c0.9,1.5,1.7,3.1,2.7,4.8
								c-1.4,0-2.6,0.2-4,0.3c0.1,0.9,0.2,1.8,0,2.6C44.2,193,45.5,195.4,49.3,193z"/>
						</g>
						<g>
							<path class="st4" d="M21.4,203l2.2,3.2c0.1,1.7-0.6,2.7-1.5,3.6c-0.9,0.9-2.2,1.5-3.3,2.3c-1.3-0.7-2.6-1.4-3.8-2.1
								c0.9-1.2,1.9-2.5,2.8-3.7c-0.1-0.8,0.4-1.4,1.2-1.9C19.7,204,20.7,203.6,21.4,203z"/>
						</g>
						<g>
							<path class="st4" d="M27.6,224.9c-0.4,0.3-0.7,0.5-1,0.7c-1.7,1-3.5,1.8-5.3,2.6c0.3-1.8,0.7-3.6,1.2-5.5
								c0.1-0.1,0.3-0.2,0.4-0.3c1-0.7,2-1.4,3-2C26.5,222,27.1,223.5,27.6,224.9z"/>
						</g>
						<g>
							<path class="st4" d="M18.4,217.1c0.9,1.3,1.8,2.5,2.7,3.8c-1.7,0.2-3.3,0.3-4.9,0.6c-0.4-0.7-0.6-1.5-0.9-2.3
								c-0.6-2.1-1-4.2-1.6-6.4C14.3,214.2,15.4,214.2,18.4,217.1z"/>
						</g>
						<g>
							<path class="st4" d="M19.9,230.2c-2.4,2.8-2.7,5.9-5.2,5.9c-0.4-0.5-0.7-0.9-1.5-1.9c-0.2-1.1-0.6-2.2-0.9-3.2
								c2.4-0.6,4.8-1,7.1-1.5C19.6,229.8,19.8,230.1,19.9,230.2z"/>
						</g>
						<g>
							<path class="st7" d="M256.2,31.9c-0.1,1.6-0.2,3.2-0.5,4.7l-1,1.4c-0.5-0.4-1.2-0.8-2.6-1.7c-0.6-1.7-1.4-3.4-2.1-5.2
								c0.4-0.6,0.8-1.2,1.2-1.7C252.9,30.1,254.7,31,256.2,31.9z"/>
						</g>
						<g>
							<path class="st7" d="M212.7,109.1c-0.9,0.7,1.2,3.2-2.7,3.8c-0.1-0.8-0.3-1.8-0.6-2.7C210.4,109.8,211.5,109.4,212.7,109.1z"
								/>
						</g>
						<g>
							<path class="st7" d="M65.2,252.7c-1.5,1.8-1.7,4.8-0.9,7.7c1,1.5,2.1,3.1,3.1,4.6l-1.3,0.8c-1.6-0.9-3.2-2.8-3.8-1.3
								c-0.6,1.4-1.2,2.6-1.8,4c-0.9-0.9-1.8-1.9-2.7-2.9c-7.1-6.5,3.4-5-1.2-10.3c-0.6,0.6-1.1,1.3-1.7,1.9c-0.8-2-2.4-1.9-3.4-3.2
								c-0.3-0.6-0.4-1.1-0.6-1.6c1.1-0.8,2.3-1.6,3.5-2.3c0.1-0.1,0.3-0.2,0.5-0.3c0.8,0.5,1.7,0.8,2.5,1.1c3.5,3.9,4.6,1.2,6,0.9
								C64,252.3,64.6,252.6,65.2,252.7z"/>
						</g>
						<g>
							<path class="st7" d="M22.5,222.7c-0.5,1.9-0.8,3.7-1.2,5.5c-0.2,0.1-0.3,0.2-0.5,0.3c-1.4-2.4-3.1-4.8-4.5-7.1
								c1.5-0.3,3.1-0.4,4.9-0.6C21.6,221.5,22.1,222.2,22.5,222.7z"/>
						</g>
						<g>
							<path class="st7" d="M51.2,268.2c0.1,0.1,0.3,0.4,0.4,0.5c-0.5,0.3-1.1,0.7-1.6,1.1c-1.3-0.9-2.7-1.8-4-2.7
								c0.9-0.7,1.9-1.4,2.8-2C49.6,266.1,50.3,267,51.2,268.2z"/>
						</g>
						<g>
							<path class="st5" d="M97.8,165.4c-0.9,0.2-1.8,0.3-2.7,0.5c-0.2-1.1-0.3-2.2-0.5-3.3L97.8,165.4z"/>
						</g>
						<g>
							<path class="st5" d="M63.6,175.4c-1.2,1.1-2.3,2.2-3.4,3.3c-1.4,0.7-2.8,1.3-4.1,2c0.2,0.3,0.3,0.6,0.4,0.7
								c-1.3,4.3-5.1-0.6-8.6,2.8c-0.6-0.6-1.2-1.2-1.7-1.8c2.7-3,4-5.4,6.9-6.1c3.2-1.6,6.2-3.1,9.4-4.6
								C62.8,172.9,63.2,174.2,63.6,175.4z"/>
						</g>
						<g>
							<path class="st5" d="M65.9,199.3c-1.1,0.5-2.1,1.1-3,1.6c-1.2-0.5-2.4-1.1-3.5-1.7c-3.1,0.4-4.6,2.3-6,4
								c-1.4,1.8-2.8,3.4-5.8,3.2c-0.3-0.6-0.6-1-0.8-1.4c1.7-1.5,3.2-2.9,4.8-4.5c2.5-2.8,7.6-4.5,11.8-6.1
								C64.2,196.1,65.1,197.8,65.9,199.3z"/>
						</g>
						<g>
							<path class="st5" d="M63.3,215.6c-2.3,1.7-3.3,4.2-5.2,6.4c-1.2,0.3-2.2,0.5-3.3,0.9c-0.9,0.5-1.9,1.1-2.9,1.6
								c-0.4-0.7-0.8-1.4-1.2-1.9c0.8-0.8,1.7-1.7,2.5-2.3c0.4-1.5,0.9-2.9,1.4-4.3c1.5-1.6,3-3,4.6-4.4c1.3,1.2,2.4,2.2,3.8,3.3
								C63,215.1,63.1,215.3,63.3,215.6z"/>
						</g>
						<g>
							<path class="st5" d="M57.4,230.3c-0.2,3.6-0.9,4-2.1,3.8c-2.5,1.7-3,4.7-3.1,10.9c-1.5,0.3-2.9,0.6-4.4,1
								c-0.6-0.5-1.2-1.2-1.8-1.7l-2.2-3.2c0.5,1.5,0.9,0.2,0.6-1.2c-0.8-1.4-2.5-2.8-2.2-4.2c0.5-0.3,1-0.8,3.5,2.4
								c0.5-0.3,1-0.6,1.4-0.8c-0.3-2.7-0.4-5.3-0.5-7.8c1.4-0.8,2.9-1.7,4.2-2.6c0.8,1.2,1.6,2.6,2.4,3.9
								C54.6,230.8,56,230.5,57.4,230.3z"/>
						</g>
						<g>
							<path class="st5" d="M44.2,250.2c-0.3,0.2-0.5,0.4-0.9,0.6c0,2.1,0.2,4.3,0.3,6.4c-0.2,0.1-0.4,0.2-0.4,0.3
								c-0.3,0.3-0.7,0.5-1,0.8c-0.3,0.3-0.6,0.6-0.9,0.9l-1.8,1.9c-1.7,0.3-3.5,0.6-5.2,0.9c-0.3-0.4-0.6-0.7-0.9-1.1
								c-2.2-1.5-4.4-3.1-6.6-4.7c-0.7-2.5-1.3-4.9-1.9-7.3c-0.7-0.3-1.3-0.5-1.8-0.6l-1.4,1.1c-3.3,0-4.6-3.6-6.8-5.6
								c0-1.2-0.1-2.6-0.1-3.8c1.2-0.3,0.8-1.7-0.1-3.8c2.5,0,2.8-3.2,5.2-5.9c2.3,2.9,4.7,5.6,7,8.3c-0.3,1-0.5,1.8-0.9,2.7
								c1,1.3,1.9,2.4,2.9,3.7c0.5-0.4,1-0.8,1.6-1.2c0.5-0.4,1.1-0.7,1.6-1.1c0.8-0.5,1.5-1,4.1-1c0.2,0.3,0.4,0.5,0.5,0.7
								c1,1.2,2.1,2.3,3.1,3.6c0.9,0.3,1.9,0.7,2.7,0.9C43,247.9,43.6,249.1,44.2,250.2z"/>
						</g>
						<g>
							<path class="st5" d="M55.3,272.8c-0.2,0.4-0.4,0.8-0.5,1.2c-0.2,0.4-0.3,0.9-0.4,1.4c-1.5-1.9-2.9-3.7-4.4-5.6
								c0.5-0.4,1-0.8,1.6-1.1C52.7,270,54.1,271.5,55.3,272.8z"/>
						</g>
						<g>
							<path class="st8" d="M132.8,145.3c-0.7,2.2-1.4,4.2-2.2,6.4c-0.1,0-0.3,0.1-0.5,0.2c-0.5-0.3-1-0.6-1.6-1
								c-0.7-1.3-1.5-2.7-2.2-4l2.7-1.3l2.6-1.4C132,144.6,132.5,145,132.8,145.3z"/>
						</g>
						<g>
							<path class="st8" d="M54.8,249.9c-0.2,0.1-0.4,0.2-0.5,0.3c-1.2,0.7-2.4,1.5-3.5,2.3c-0.6-0.7-1.5-1.6-2.1-2.3
								c-0.4-1.3-0.7-2.7-0.9-4c1.4-0.4,2.9-0.7,4.4-1C53,246.7,53.9,248.4,54.8,249.9z"/>
						</g>
						<g>
							<path class="st8" d="M49,260.3c-0.3,0.2-0.6,0.4-0.9,0.6c-0.8-0.2-1.5-0.4-2.2-0.5l-2.3-3.1c-0.1-2.1-0.2-4.3-0.3-6.4
								c0.4-0.2,0.6-0.4,0.9-0.6c0.2,0.3,0.4,0.5,0.5,0.7c1.7,1.8,3.3,3.5,5,5.1C49.4,257.5,49.1,258.8,49,260.3z"/>
						</g>
						<g>
							<path class="st6" d="M68.6,250.7c-0.3,1.1-0.6,2.2-1,3.2c1.1,1.4,2.3,3,3.4,4.4c-1,0.6-2,1.2-3,1.8c-0.3,1.1,0.5,2.1,0.5,3.3
								c-0.3,0.5-0.6,0.9-0.8,1.4c-0.2,0.1-0.3,0.2-0.4,0.3c-1-1.5-2.1-3.1-3.1-4.6c-0.8-2.9-0.5-5.9,0.9-7.7
								c-0.6-0.2-1.1-0.4-1.8-0.8l-2.2,1.3c-0.9,2.1-2.9-0.3-3.9-2.2c0.9-1.1,1.8-2.2,2.7-3.3l-1.3-2c0.6-0.5,0.9-1.1,1.5-1.7
								c1.8-3,5.4,1.3,8.4-1.2c1.4,1.3,0.2,2.5,0.6,3.2c-0.7,0.9-1.3,1.8-1.9,2.9C67.7,249.3,68.2,250,68.6,250.7z"/>
						</g>
						<g>
							<path class="st2" d="M71,258.3c0.7,1.1,1.4,2.2,2.1,3.3c-1.6,0.5-3,1.2-4.6,1.8c0.1-1.2-0.7-2.2-0.5-3.3
								C69,259.5,70.1,258.9,71,258.3z"/>
						</g>
						<g>
							<path class="st3" d="M248.8,127.3c-0.8,0.9-1.5,1.7-2.4,2.6C247.3,129.2,244.4,127.8,248.8,127.3z"/>
						</g>
						<g>
							<path class="st3" d="M79.6,256.1c-0.2,1.6-0.9,3-2.1,3.9c-1.2,1-2.7,1.5-4.4,1.5c-0.7-1.1-1.4-2.2-2.1-3.3
								c1.6-0.8,3.4-1.4,5.2-2C77.3,256.3,78.4,256.2,79.6,256.1z"/>
						</g>
						<g>
							<path class="st6" d="M90.3,224.5c-1,3.2-2.1,3.7-3.2,4.2C82.4,223.7,87.2,223,90.3,224.5z"/>
						</g>
						<g>
							<path class="st6" d="M242.5,96.2c-1.1,0.1-2.2,0.2-3.2,0.4c-0.9-1.5-2.7-3.2-0.9-4.1c0.9-0.6,1.6-1,2.3-1.6
								C243.3,92.9,239.9,93.5,242.5,96.2z"/>
						</g>
						<g>
							<path class="st4" d="M165.4,147.6c-0.9,0.4-0.4,1.9-0.5,3c-0.9,0.2-1.7,0.5-2.6,0.7c-0.6,1.3-1.2,2.5-1.8,3.8
								c-0.7-0.3-1.3-0.6-1.8-0.8c-0.7,2.1-3.3,2.4-4.9,3.7c-1.3,0-2.4,0.1-3.6,0.1c0.8-0.4,0.5-1.9,0.6-2.9c2-1.2,4.2-2.4,6.2-3.5
								c0.7-0.4,1.5-0.8,4.8-1.1C162.7,149.8,162,147.8,165.4,147.6z"/>
						</g>
					</g>
				</g>
			</g>
		</g>
	</g>
</g>
<g id="Layer_1">
	<g>
		<g>
			<path class="st9" d="M61.9,142.1c-1.3-5.5-3.6-11-6.7-16.3c-2.7-4.6-4.8-8.3-6.4-11.1c-1.6-2.8-2.8-5.1-3.7-6.9
				c-0.9-1.8-1.4-3.2-1.7-4.1c-0.3-0.9-0.4-1.8-0.4-2.7c0-2.1,1.1-3.7,2.1-5.1c1.4-2,2.4-3.5,4.5-4.6c2.5-1.3,6.1-1.6,8.8,0
				c1,0.6,1.8,1.4,4.4,8.8c2.8,8,4.4,14,5.2,17.5c0.1,0.6,0.2,0.9,0.3,1.1c0.7,2.3,3.4,5.8,20.3,28.6c7.3,9.9,13.1,17.7,21,26.9
				c7.4,8.6,10,10.6,20.9,22.1c5.6,6,13.9,15,23.9,26.6c1.5-3.7,1.9-6.7,1.9-8.8c0-2-0.2-3.3,0-6.6c0.1-1.6,0.2-2.4,0.2-4.2
				c0-1.9-0.1-2.2-0.2-4.6c-0.1-1.3,0-1.2,0-6.6c0-1.5,0-2.9,0-4.4s0-2.9,0-4.4c0-2.2,0-4.4,0-6.6c0-2.2,0-4.4,0-6.6
				c0-3.7,0-7.3,0-11c0-2.9,0-5.8,0-8.8s0-5.8,0-8.8c0-5.8,0-11.7,0-17.5c0-0.7,0-1.5,0-2.2c0-0.7,0-1.5,0-2.2c0-4.4,0-4.3,0-4.4
				c-0.2-0.8-0.7-2-1.9-4.4c-0.2-0.4-0.4-0.8-0.8-1.3c-0.5-0.6-1-1-1.4-1.3c-0.5-0.4-0.7-0.5-1-0.8c-0.1-0.1-0.3-0.3-0.7-1
				c-0.4-0.7-0.7-1.4-0.8-1.5c-0.7-1.5-1.1-2.3-1.1-2.9c-0.1-1.1,0.3-2,0.7-2.9c0.7-1.5,1.5-2.3,3.1-3.7c1.8-1.6,2.9-2.6,3.8-2.2
				c0.4,0.2,0.3,0.5,0.8,0.9c1,0.6,1.9-0.5,3.5-0.5c1.2,0,2.4,0.3,3.5,0.9c1.2,0.6,1.8,2,1.8,4.2c0,1.4-0.1,3.2-0.4,5.6
				c-0.3,2.4-0.6,6.6-1,12.7c-0.4,6.1-0.7,14.7-1,25.8c-0.3,11.2-0.4,26.3-0.4,45.4c0,5.8,0.1,10.9,0.2,15.2
				c0.2,4.4,0.4,8.2,0.6,11.5c0.3,3.3,0.5,6.3,0.6,8.8c0.3,5.2-0.1,5.3,0.2,7.4c0.5,2.6,3.9,7.1,3.2,8.9c-1.1,2.7-12.6,2.6-15.4-2.2
				c-0.5-0.8-0.6-1.6-1.8-4c-0.6-1.1-1.5-2.6-2.7-4.4c-0.7-1.1-1.8-2.5-3.5-4.3c-1.4-1.5-3.4-3.4-7.4-7.1c-2.5-2.3-4.3-4-4.7-4.4
				c-4.8-4.4-8.2-7.2-10.3-9.1c-6.3-5.9-11.8-11.1-16.4-15.6c-4.6-4.5-8.5-8.5-11.8-11.9c-3.2-3.4-6-6.6-8.5-9.5
				c-2.4-2.9-4.6-5.7-6.5-8.3c-1.9-2.6-3.9-5.4-5.8-8.3c-0.3,3.8-0.6,8.9-0.9,15.4c-0.3,6.5-0.6,13.5-0.9,21.1
				c-0.3,7.6-0.7,15.2-1.2,22.9c-0.5,7.7-1.1,14.6-1.9,20.7c-0.5,3.9-1.4,6.8-2.6,8.7c-1.2,1.9-2.4,2.8-3.7,2.8
				c-0.5,0-1.2-0.2-2-0.5c-0.8-0.3-1.6-0.9-2.3-1.5c-0.7-0.7-1.3-1.4-1.8-2.3c-0.5-0.9-0.7-1.8-0.7-2.8c0-1.7,0.5-4.3,1.4-7.8
				c0.9-3.5,1.9-8.2,2.9-14.1c1-5.9,2-13.1,2.9-21.5c0.9-8.4,1.4-18.4,1.4-29.8C64,154.5,63.3,147.6,61.9,142.1z M152.7,225.1
				 M170.2,233.8"/>
			<path class="st10" d="M221.5,88.9c5.4,7,8.2,15.5,8.2,25.7c0,5.7-0.7,10.8-2,15.4c-1.3,4.5-3.1,8.5-5.2,11.8
				c-2.1,3.3-4.5,6-7,8.2c-2.5,2.1-4.9,3.7-7.2,4.8l-19,8.6v0.5c2,0.4,3.7,0.8,5.1,1.3c1.4,0.5,2.7,1.5,3.7,2.9
				c7.5,9.3,14.8,17.5,21.8,24.7c7,7.2,13.3,13.4,18.9,18.6c5.5,5.2,10,9.3,13.4,12.3c3.4,3,5.1,4.9,5.1,5.6c0,1.3-0.2,2.4-0.7,3.3
				c-0.4,1-1.4,2.2-2.8,3.6c-1.6,1.6-2.8,2.8-3.6,3.5c-0.8,0.7-1.6,1.1-2.5,1.1h-4.3c-1.4,0-2.7-0.2-3.9-0.7
				c-1.2-0.4-2.5-1.6-3.9-3.3c-2.5-3-5.5-6.7-9-11c-3.5-4.3-8.3-9.8-14.6-16.6L183.1,178c-1.8-2-3.6-3.3-5.5-3.9
				c-1.9-0.6-4-0.9-6.3-0.9c-0.2,2.9-0.3,6-0.4,9.4c-0.1,3.4-0.1,7.3-0.1,11.8V238c0,0.9-0.1,1.8-0.4,2.6c-0.2,0.5-0.3,1-0.6,1.3
				c-0.3,0.4-1.2,1.1-3.9,0.8c-3-0.3-5.2-1.5-6.6-2.2c-7.6-3.8-8.2-3.1-8.8-4.4c-1.3-2.8,0.8-7,0.8-10.6c0-0.2,0-0.8,0.1-1.5
				c0.2-1.6,1-2.4,1.4-7.4c0.4-5.1,0.8-10.8,1.1-17.3c0.3-6.4,0.5-12.8,0.7-19c0.2-6.2,0.3-11,0.3-14.2v-14.2
				c0-7.5-0.1-14.7-0.4-21.5c-0.3-6.9-0.7-12.7-1.2-17.5c-0.2-1.4-0.7-2.4-1.5-2.8c-0.8-0.4-1.6-0.8-2.4-1.2
				c-0.8-0.4-1.6-0.9-2.3-1.7c-0.7-0.8-1.1-2.1-1.1-3.9c0-3,1.2-5.4,3.5-7c4.5-3.2,9.1-5.9,13.9-8.2c4.8-2.2,9.4-4.1,13.6-5.5
				c4.3-1.4,8.2-2.5,11.6-3.1c3.5-0.6,6.2-0.9,8.2-0.9C207.8,78.5,216.1,82,221.5,88.9z M176.2,157.7c0.5,0,2.6-0.9,6.3-2.7
				c3.7-1.8,7.6-4.3,11.8-7.6c4.2-3.3,7.9-7.4,11.2-12.3c3.3-4.9,5-10.5,5-16.7c0-8.9-1.8-15.2-5.4-18.9c-3.6-3.7-7.9-5.5-12.8-5.5
				c-3,0-6.2,0.7-9.6,2.1c-3.4,1.4-6.1,3.6-8,6.4c-0.5,1.6-1,3.9-1.3,7c-0.4,3-0.7,6.5-0.9,10.4c-0.3,3.9-0.5,8-0.7,12.2
				c-0.2,4.2-0.3,8.2-0.3,11.9v11.5C171.9,157,173.5,157.7,176.2,157.7z"/>
			<path class="st10" d="M128.5,54"/>
			<path class="st10" d="M185.6,242.6"/>
			<path class="st9" d="M141.7,236"/>
			<path class="st10" d="M152.7,247"/>
			<path class="st9" d="M181.2,225.1"/>
		</g>
		<path class="st9" d="M77,127"/>
	</g>
</g>
</svg>
